<svg width="1440" height="120" xmlns="http://www.w3.org/2000/svg">

 <g>
  <title>Layer 1</title>
  <path stroke="null" id="svg_1" d="m1436.39141,49.22515l-39.92582,-3.944c-39.92582,-3.79656 -119.77746,-11.90571 -199.62911,-15.70227c-79.85164,-3.944 -159.70329,-3.944 -239.55493,-1.99043c-79.85164,2.10101 -159.70329,5.78699 -239.55493,1.99043c-79.85164,-3.944 -159.70329,-15.73913 -239.55493,-21.6367c-79.85164,-5.89757 -159.70329,-5.89757 -239.55493,-1.95357c-79.85164,3.79656 -159.70329,11.90571 -199.62911,15.70227l-39.92582,3.944l0,94.36107l39.92582,0c39.92582,0 119.77746,0 199.62911,0c79.85164,0 159.70329,0 239.55493,0c79.85164,0 159.70329,0 239.55493,0c79.85164,0 159.70329,0 239.55493,0c79.85164,0 159.70329,0 239.55493,0c79.85164,0 159.70329,0 199.62911,0l39.92582,0l0,-70.7708z" fill="#37486b"/>
 </g>
</svg>